:SAMPLES-PER-SECOND 30
:FULLY-SPECIFIED
:DEGREES
526
root  -13.2621 38.0832 12.4085 -19.3606 -77.4297 10.7672
RightUpLeg  10.3399 -11.291 -14.8932
RightLeg  48.8262 1.39997 1.38981
RightFoot  -0.160983 -1.31681 14.1658
RightToes  0.00048216 0.542163 -0.142577
Spine  14.6874 0.834371 5.60695
Spine1  11.658 2.51668 -2.46922
HEad  2.45597 -6.97191 1.15489
LeftShoulder1  8.30909 -13.5757 -42.2531
LeftArm  -19.8035 21.8896 -18.2362
LeftForeArm  64.0291 -79.0357 -77.2251
LeftHand  -0.25398 0.0180481 5.50724
RightShoulder  5.58294 9.872 35.7637
RightArm  -2.83052 -12.7266 27.7747
RightForeArm  20.4319 77.519 78.8301
RightHand  0.643733 -10.7856 -14.8123
LeftUpLeg  -19.978 24.762 -13.4897
LeftLeg  20.0685 6.91297 3.2721
LeftFoot  1.58091 -1.87963 16.2904
LeftToes  1.06244e-005 4.65856e-005 -8.18505e-006
527
root  -14.4567 38.0396 12.8884 -26.12 -76.6429 17.7958
RightUpLeg  1.39097 -8.08794 -15.6355
RightLeg  60.7106 0.65094 0.783871
RightFoot  11.7383 -1.6263 8.22684
RightToes  0.00048216 0.542163 -0.142577
Spine  16.9617 0.672919 4.31488
Spine1  11.5588 2.3341 -3.18794
HEad  2.38493 -7.27057 0.459692
LeftShoulder1  8.53723 -13.9174 -42.5833
LeftArm  -19.0048 20.1252 -17.5918
LeftForeArm  53.3963 -78.3843 -67.1072
LeftHand  -0.25398 0.0180481 5.50724
RightShoulder  5.57929 10.0233 35.2789
RightArm  -2.55852 -11.3524 27.6268
RightForeArm  16.4498 77.3659 76.1783
RightHand  0.629188 -10.3363 -15.769
LeftUpLeg  -19.1177 25.7043 -14.774
LeftLeg  23.1223 6.88926 3.54431
LeftFoot  -2.35516 -1.13487 14.57
LeftToes  1.06244e-005 4.65856e-005 -8.18505e-006
528
root  -15.6272 38.1368 13.3923 -29.941 -76.2877 21.6826
RightUpLeg  -6.69965 -5.17325 -15.7759
RightLeg  68.489 0.438595 0.481657
RightFoot  14.8797 -0.875487 4.10946
RightToes  0.00048216 0.542163 -0.142577
Spine  19.0574 0.332297 3.91773
Spine1  11.7476 2.02943 -3.67244
HEad  2.19598 -7.02372 -0.458525
LeftShoulder1  8.70858 -14.2185 -42.7074
LeftArm  -18.1837 18.3972 -17.2435
LeftForeArm  44.7682 -77.5073 -58.953
LeftHand  -0.25398 0.0180481 5.50724
RightShoulder  5.50487 10.0836 34.5595
RightArm  -1.80827 -9.19879 27.1761
RightForeArm  12.5745 77.2262 74.4789
RightHand  0.550325 -9.28606 -17.4296
LeftUpLeg  -17.2073 27.3203 -15.3027
LeftLeg  24.0787 5.7747 3.16204
LeftFoot  -4.67312 -0.79784 14.1409
LeftToes  1.06244e-005 4.65856e-005 -8.18505e-006
529
root  -16.819 38.4502 13.8993 -30.546 -75.6772 22.099
RightUpLeg  -12.8408 -3.48188 -15.5699
RightLeg  71.0678 0.185433 -0.25955
RightFoot  12.0175 -0.509414 2.89228
RightToes  0.00048216 0.542163 -0.142577
Spine  21.014 -0.341641 3.74965
Spine1  11.7673 1.20947 -3.09013
HEad  2.28601 -6.60853 -0.985107
LeftShoulder1  8.83275 -14.4476 -42.7665
LeftArm  -17.5776 16.8192 -17.239
LeftForeArm  37.6519 -76.4414 -52.041
LeftHand  -0.25398 0.0180481 5.50724
RightShoulder  5.43519 10.1099 33.9758
RightArm  -1.0312 -6.71416 26.6439
RightForeArm  7.88666 77.0014 71.6155
RightHand  0.443674 -8.3267 -18.6797
LeftUpLeg  -14.0171 27.5504 -14.947
LeftLeg  23.1572 5.24229 2.79446
LeftFoot  -5.74259 -0.678176 14.4877
LeftToes  1.06244e-005 4.65856e-005 -8.18505e-006
530
root  -18.0021 38.7684 14.3544 -29.0034 -74.4615 20.6673
RightUpLeg  -17.8117 -3.09775 -15.1992
RightLeg  69.2347 -0.0389334 -0.909201
RightFoot  8.65244 -0.491743 3.11815
RightToes  0.00048216 0.542163 -0.142577
Spine  22.5453 -1.08241 3.2974
Spine1  11.5812 0.0327428 -1.92427
HEad  2.85667 -6.60443 -0.972749
LeftShoulder1  8.96119 -14.6375 -42.9445
LeftArm  -17.1331 15.0915 -17.4079
LeftForeArm  30.8044 -75.0077 -45.3234
LeftHand  -0.25398 0.0180481 5.50724
RightShoulder  5.36731 10.0733 33.5866
RightArm  -0.794317 -4.80948 26.2716
RightForeArm  3.91487 76.7541 68.7538
RightHand  0.374227 -7.77751 -19.4893
LeftUpLeg  -10.8347 26.5004 -14.4735
LeftLeg  21.8094 5.41421 2.73089
LeftFoot  -7.04702 -0.475012 13.6893
LeftToes  1.06244e-005 4.65856e-005 -8.18505e-006
531
root  -19.2034 39.0482 14.8063 -26.1744 -73.3421 18.2591
RightUpLeg  -21.8926 -3.23334 -14.1949
RightLeg  63.8028 -0.852484 -2.42014
RightFoot  7.13642 -0.291931 2.0866
RightToes  0.00048216 0.542163 -0.142577
Spine  23.4896 -1.74441 3.40345
Spine1  11.4169 -0.924461 -0.915272
HEad  3.52685 -7.1136 -0.663517
LeftShoulder1  9.13339 -14.8516 -43.2782
LeftArm  -16.7523 13.1768 -17.5654
LeftForeArm  24.8098 -73.3171 -39.5239
LeftHand  -0.25398 0.0180481 5.50724
RightShoulder  5.26622 9.94246 33.2215
RightArm  -1.13993 -3.91607 26.0914
RightForeArm  2.31007 76.6747 68.0368
RightHand  0.323687 -7.36488 -20.4681
LeftUpLeg  -7.89687 25.4336 -13.701
LeftLeg  20.2751 5.3997 2.47281
LeftFoot  -8.40201 -0.264811 12.2815
LeftToes  1.06244e-005 4.65856e-005 -8.18505e-006
532
root  -20.4164 39.2645 15.262 -23.9225 -72.7727 16.4534
RightUpLeg  -24.3083 -3.36034 -12.7589
RightLeg  54.8887 -3.11384 -5.08939
RightFoot  5.18362 -0.128527 1.14931
RightToes  0.00048216 0.542163 -0.142577
Spine  24.1743 -2.20289 3.75685
Spine1  11.4484 -1.49557 -0.313783
HEad  3.79871 -7.68973 -0.306144
LeftShoulder1  9.3163 -15.1032 -43.5637
LeftArm  -16.541 11.5507 -17.6953
LeftForeArm  20.7449 -71.8453 -35.6247
LeftHand  -0.25398 0.0180481 5.50724
RightShoulder  5.17593 9.82237 32.8985
RightArm  -1.61213 -3.55869 25.9933
RightForeArm  2.373 76.741 68.9324
RightHand  0.231647 -6.75143 -21.576
LeftUpLeg  -5.3143 24.017 -12.7391
LeftLeg  19.1475 5.95502 2.0779
LeftFoot  -9.56416 -0.123824 11.7422
LeftToes  1.06244e-005 4.65856e-005 -8.18505e-006
